%
M48
M72
T01C0.02362
T02C0.03150
T03C0.03200
T04C0.03937
T05C0.04000
T06C0.07480
T07C0.10000
%
T01
X41787Y21787
X66787Y41787
X76787Y26787
X96787Y26787
X106787Y46787
X96787Y56787
X76787Y56787
X101787Y81787
X106787Y91787
X96787Y101787
X76787Y96787
X66787Y101787
X41787Y101787
X36787Y91787
X21787Y86787
X36787Y61787
X41787Y51787
X126787Y146787
X146787Y126787
X151787Y116787
X166787Y111787
X161787Y101787
X156787Y91787
X176787Y81787
X166787Y61787
X161787Y51787
X156787Y41787
X166787Y21787
X176787Y31787
X76787Y166787
X116787Y176787
T02
X56787Y186787
X56787Y166787
X66787Y86787
X66787Y76787
X66787Y66787
X46787Y71787
X26787Y71787
X11787Y49661
X11787Y41787
X11787Y33913
X40488Y36866
X43638Y32142
X46787Y36866
X49937Y32142
X53087Y36866
T03
X16787Y146787
X36787Y131787
X36787Y121787
X51787Y131787
X56787Y146787
X66787Y156787
X86787Y151787
X86787Y141787
X86787Y131787
X86787Y121787
X86787Y111787
X86787Y101787
X86787Y91787
X86787Y81787
X86787Y71787
X86787Y61787
X86787Y51787
X86787Y41787
X86787Y31787
X96787Y16787
X106787Y16787
X116787Y31787
X116787Y41787
X116787Y51787
X116787Y61787
X116787Y71787
X116787Y81787
X116787Y91787
X116787Y101787
X116787Y111787
X116787Y121787
X116787Y131787
X116787Y141787
X116787Y151787
X116787Y161787
X126787Y161787
X136787Y161787
X136787Y181787
X126787Y186787
X116787Y186787
X109287Y181787
X101787Y176787
X101787Y186787
X86787Y176787
X76787Y176787
X86787Y161787
X66787Y116787
X51787Y91787
X131787Y81787
X141787Y81787
X176787Y161787
X176787Y171787
X176787Y181787
T04
X11787Y26039
X11787Y57535
T05
X6787Y71787
X6787Y81787
X6787Y91787
X6787Y101787
X6787Y111787
X6787Y121787
X6787Y131787
X6787Y141787
X191787Y141787
X191787Y131787
X191787Y121787
X191787Y111787
X191787Y101787
X191787Y91787
X191787Y81787
X191787Y71787
X166787Y6787
X156787Y6787
X146787Y6787
X136787Y6787
X126787Y6787
X116787Y6787
T06
X32417Y16787
X61157Y16787
T07
X11787Y191787
X11787Y11787
X191787Y11787
X191787Y191787
M30
