G75*
%MOIN*%
%OFA0B0*%
%FSLAX25Y25*%
%IPPOS*%
%LPD*%
%AMOC8*
5,1,8,0,0,1.08239X$1,22.5*
%
%ADD10C,0.00000*%
%ADD11C,0.10400*%
%ADD12C,0.05600*%
%ADD13OC8,0.05600*%
%ADD14C,0.05550*%
%ADD15C,0.11620*%
%ADD16C,0.06700*%
%ADD17OC8,0.06700*%
%ADD18C,0.07800*%
%ADD19R,0.05550X0.05550*%
%ADD20R,0.06337X0.06337*%
D10*
X0001800Y0009867D02*
X0001800Y0206717D01*
X0198650Y0206717D01*
X0198650Y0009867D01*
X0001800Y0009867D01*
X0006800Y0019867D02*
X0006802Y0020008D01*
X0006808Y0020149D01*
X0006818Y0020289D01*
X0006832Y0020429D01*
X0006850Y0020569D01*
X0006871Y0020708D01*
X0006897Y0020847D01*
X0006926Y0020985D01*
X0006960Y0021121D01*
X0006997Y0021257D01*
X0007038Y0021392D01*
X0007083Y0021526D01*
X0007132Y0021658D01*
X0007184Y0021789D01*
X0007240Y0021918D01*
X0007300Y0022045D01*
X0007363Y0022171D01*
X0007429Y0022295D01*
X0007500Y0022418D01*
X0007573Y0022538D01*
X0007650Y0022656D01*
X0007730Y0022772D01*
X0007814Y0022885D01*
X0007900Y0022996D01*
X0007990Y0023105D01*
X0008083Y0023211D01*
X0008178Y0023314D01*
X0008277Y0023415D01*
X0008378Y0023513D01*
X0008482Y0023608D01*
X0008589Y0023700D01*
X0008698Y0023789D01*
X0008810Y0023874D01*
X0008924Y0023957D01*
X0009040Y0024037D01*
X0009159Y0024113D01*
X0009280Y0024185D01*
X0009402Y0024255D01*
X0009527Y0024320D01*
X0009653Y0024383D01*
X0009781Y0024441D01*
X0009911Y0024496D01*
X0010042Y0024548D01*
X0010175Y0024595D01*
X0010309Y0024639D01*
X0010444Y0024680D01*
X0010580Y0024716D01*
X0010717Y0024748D01*
X0010855Y0024777D01*
X0010993Y0024802D01*
X0011133Y0024822D01*
X0011273Y0024839D01*
X0011413Y0024852D01*
X0011554Y0024861D01*
X0011694Y0024866D01*
X0011835Y0024867D01*
X0011976Y0024864D01*
X0012117Y0024857D01*
X0012257Y0024846D01*
X0012397Y0024831D01*
X0012537Y0024812D01*
X0012676Y0024790D01*
X0012814Y0024763D01*
X0012952Y0024733D01*
X0013088Y0024698D01*
X0013224Y0024660D01*
X0013358Y0024618D01*
X0013492Y0024572D01*
X0013624Y0024523D01*
X0013754Y0024469D01*
X0013883Y0024412D01*
X0014010Y0024352D01*
X0014136Y0024288D01*
X0014259Y0024220D01*
X0014381Y0024149D01*
X0014501Y0024075D01*
X0014618Y0023997D01*
X0014733Y0023916D01*
X0014846Y0023832D01*
X0014957Y0023745D01*
X0015065Y0023654D01*
X0015170Y0023561D01*
X0015273Y0023464D01*
X0015373Y0023365D01*
X0015470Y0023263D01*
X0015564Y0023158D01*
X0015655Y0023051D01*
X0015743Y0022941D01*
X0015828Y0022829D01*
X0015910Y0022714D01*
X0015989Y0022597D01*
X0016064Y0022478D01*
X0016136Y0022357D01*
X0016204Y0022234D01*
X0016269Y0022109D01*
X0016331Y0021982D01*
X0016388Y0021853D01*
X0016443Y0021723D01*
X0016493Y0021592D01*
X0016540Y0021459D01*
X0016583Y0021325D01*
X0016622Y0021189D01*
X0016657Y0021053D01*
X0016689Y0020916D01*
X0016716Y0020778D01*
X0016740Y0020639D01*
X0016760Y0020499D01*
X0016776Y0020359D01*
X0016788Y0020219D01*
X0016796Y0020078D01*
X0016800Y0019937D01*
X0016800Y0019797D01*
X0016796Y0019656D01*
X0016788Y0019515D01*
X0016776Y0019375D01*
X0016760Y0019235D01*
X0016740Y0019095D01*
X0016716Y0018956D01*
X0016689Y0018818D01*
X0016657Y0018681D01*
X0016622Y0018545D01*
X0016583Y0018409D01*
X0016540Y0018275D01*
X0016493Y0018142D01*
X0016443Y0018011D01*
X0016388Y0017881D01*
X0016331Y0017752D01*
X0016269Y0017625D01*
X0016204Y0017500D01*
X0016136Y0017377D01*
X0016064Y0017256D01*
X0015989Y0017137D01*
X0015910Y0017020D01*
X0015828Y0016905D01*
X0015743Y0016793D01*
X0015655Y0016683D01*
X0015564Y0016576D01*
X0015470Y0016471D01*
X0015373Y0016369D01*
X0015273Y0016270D01*
X0015170Y0016173D01*
X0015065Y0016080D01*
X0014957Y0015989D01*
X0014846Y0015902D01*
X0014733Y0015818D01*
X0014618Y0015737D01*
X0014501Y0015659D01*
X0014381Y0015585D01*
X0014259Y0015514D01*
X0014136Y0015446D01*
X0014010Y0015382D01*
X0013883Y0015322D01*
X0013754Y0015265D01*
X0013624Y0015211D01*
X0013492Y0015162D01*
X0013358Y0015116D01*
X0013224Y0015074D01*
X0013088Y0015036D01*
X0012952Y0015001D01*
X0012814Y0014971D01*
X0012676Y0014944D01*
X0012537Y0014922D01*
X0012397Y0014903D01*
X0012257Y0014888D01*
X0012117Y0014877D01*
X0011976Y0014870D01*
X0011835Y0014867D01*
X0011694Y0014868D01*
X0011554Y0014873D01*
X0011413Y0014882D01*
X0011273Y0014895D01*
X0011133Y0014912D01*
X0010993Y0014932D01*
X0010855Y0014957D01*
X0010717Y0014986D01*
X0010580Y0015018D01*
X0010444Y0015054D01*
X0010309Y0015095D01*
X0010175Y0015139D01*
X0010042Y0015186D01*
X0009911Y0015238D01*
X0009781Y0015293D01*
X0009653Y0015351D01*
X0009527Y0015414D01*
X0009402Y0015479D01*
X0009280Y0015549D01*
X0009159Y0015621D01*
X0009040Y0015697D01*
X0008924Y0015777D01*
X0008810Y0015860D01*
X0008698Y0015945D01*
X0008589Y0016034D01*
X0008482Y0016126D01*
X0008378Y0016221D01*
X0008277Y0016319D01*
X0008178Y0016420D01*
X0008083Y0016523D01*
X0007990Y0016629D01*
X0007900Y0016738D01*
X0007814Y0016849D01*
X0007730Y0016962D01*
X0007650Y0017078D01*
X0007573Y0017196D01*
X0007500Y0017316D01*
X0007429Y0017439D01*
X0007363Y0017563D01*
X0007300Y0017689D01*
X0007240Y0017816D01*
X0007184Y0017945D01*
X0007132Y0018076D01*
X0007083Y0018208D01*
X0007038Y0018342D01*
X0006997Y0018477D01*
X0006960Y0018613D01*
X0006926Y0018749D01*
X0006897Y0018887D01*
X0006871Y0019026D01*
X0006850Y0019165D01*
X0006832Y0019305D01*
X0006818Y0019445D01*
X0006808Y0019585D01*
X0006802Y0019726D01*
X0006800Y0019867D01*
X0006800Y0199867D02*
X0006802Y0200008D01*
X0006808Y0200149D01*
X0006818Y0200289D01*
X0006832Y0200429D01*
X0006850Y0200569D01*
X0006871Y0200708D01*
X0006897Y0200847D01*
X0006926Y0200985D01*
X0006960Y0201121D01*
X0006997Y0201257D01*
X0007038Y0201392D01*
X0007083Y0201526D01*
X0007132Y0201658D01*
X0007184Y0201789D01*
X0007240Y0201918D01*
X0007300Y0202045D01*
X0007363Y0202171D01*
X0007429Y0202295D01*
X0007500Y0202418D01*
X0007573Y0202538D01*
X0007650Y0202656D01*
X0007730Y0202772D01*
X0007814Y0202885D01*
X0007900Y0202996D01*
X0007990Y0203105D01*
X0008083Y0203211D01*
X0008178Y0203314D01*
X0008277Y0203415D01*
X0008378Y0203513D01*
X0008482Y0203608D01*
X0008589Y0203700D01*
X0008698Y0203789D01*
X0008810Y0203874D01*
X0008924Y0203957D01*
X0009040Y0204037D01*
X0009159Y0204113D01*
X0009280Y0204185D01*
X0009402Y0204255D01*
X0009527Y0204320D01*
X0009653Y0204383D01*
X0009781Y0204441D01*
X0009911Y0204496D01*
X0010042Y0204548D01*
X0010175Y0204595D01*
X0010309Y0204639D01*
X0010444Y0204680D01*
X0010580Y0204716D01*
X0010717Y0204748D01*
X0010855Y0204777D01*
X0010993Y0204802D01*
X0011133Y0204822D01*
X0011273Y0204839D01*
X0011413Y0204852D01*
X0011554Y0204861D01*
X0011694Y0204866D01*
X0011835Y0204867D01*
X0011976Y0204864D01*
X0012117Y0204857D01*
X0012257Y0204846D01*
X0012397Y0204831D01*
X0012537Y0204812D01*
X0012676Y0204790D01*
X0012814Y0204763D01*
X0012952Y0204733D01*
X0013088Y0204698D01*
X0013224Y0204660D01*
X0013358Y0204618D01*
X0013492Y0204572D01*
X0013624Y0204523D01*
X0013754Y0204469D01*
X0013883Y0204412D01*
X0014010Y0204352D01*
X0014136Y0204288D01*
X0014259Y0204220D01*
X0014381Y0204149D01*
X0014501Y0204075D01*
X0014618Y0203997D01*
X0014733Y0203916D01*
X0014846Y0203832D01*
X0014957Y0203745D01*
X0015065Y0203654D01*
X0015170Y0203561D01*
X0015273Y0203464D01*
X0015373Y0203365D01*
X0015470Y0203263D01*
X0015564Y0203158D01*
X0015655Y0203051D01*
X0015743Y0202941D01*
X0015828Y0202829D01*
X0015910Y0202714D01*
X0015989Y0202597D01*
X0016064Y0202478D01*
X0016136Y0202357D01*
X0016204Y0202234D01*
X0016269Y0202109D01*
X0016331Y0201982D01*
X0016388Y0201853D01*
X0016443Y0201723D01*
X0016493Y0201592D01*
X0016540Y0201459D01*
X0016583Y0201325D01*
X0016622Y0201189D01*
X0016657Y0201053D01*
X0016689Y0200916D01*
X0016716Y0200778D01*
X0016740Y0200639D01*
X0016760Y0200499D01*
X0016776Y0200359D01*
X0016788Y0200219D01*
X0016796Y0200078D01*
X0016800Y0199937D01*
X0016800Y0199797D01*
X0016796Y0199656D01*
X0016788Y0199515D01*
X0016776Y0199375D01*
X0016760Y0199235D01*
X0016740Y0199095D01*
X0016716Y0198956D01*
X0016689Y0198818D01*
X0016657Y0198681D01*
X0016622Y0198545D01*
X0016583Y0198409D01*
X0016540Y0198275D01*
X0016493Y0198142D01*
X0016443Y0198011D01*
X0016388Y0197881D01*
X0016331Y0197752D01*
X0016269Y0197625D01*
X0016204Y0197500D01*
X0016136Y0197377D01*
X0016064Y0197256D01*
X0015989Y0197137D01*
X0015910Y0197020D01*
X0015828Y0196905D01*
X0015743Y0196793D01*
X0015655Y0196683D01*
X0015564Y0196576D01*
X0015470Y0196471D01*
X0015373Y0196369D01*
X0015273Y0196270D01*
X0015170Y0196173D01*
X0015065Y0196080D01*
X0014957Y0195989D01*
X0014846Y0195902D01*
X0014733Y0195818D01*
X0014618Y0195737D01*
X0014501Y0195659D01*
X0014381Y0195585D01*
X0014259Y0195514D01*
X0014136Y0195446D01*
X0014010Y0195382D01*
X0013883Y0195322D01*
X0013754Y0195265D01*
X0013624Y0195211D01*
X0013492Y0195162D01*
X0013358Y0195116D01*
X0013224Y0195074D01*
X0013088Y0195036D01*
X0012952Y0195001D01*
X0012814Y0194971D01*
X0012676Y0194944D01*
X0012537Y0194922D01*
X0012397Y0194903D01*
X0012257Y0194888D01*
X0012117Y0194877D01*
X0011976Y0194870D01*
X0011835Y0194867D01*
X0011694Y0194868D01*
X0011554Y0194873D01*
X0011413Y0194882D01*
X0011273Y0194895D01*
X0011133Y0194912D01*
X0010993Y0194932D01*
X0010855Y0194957D01*
X0010717Y0194986D01*
X0010580Y0195018D01*
X0010444Y0195054D01*
X0010309Y0195095D01*
X0010175Y0195139D01*
X0010042Y0195186D01*
X0009911Y0195238D01*
X0009781Y0195293D01*
X0009653Y0195351D01*
X0009527Y0195414D01*
X0009402Y0195479D01*
X0009280Y0195549D01*
X0009159Y0195621D01*
X0009040Y0195697D01*
X0008924Y0195777D01*
X0008810Y0195860D01*
X0008698Y0195945D01*
X0008589Y0196034D01*
X0008482Y0196126D01*
X0008378Y0196221D01*
X0008277Y0196319D01*
X0008178Y0196420D01*
X0008083Y0196523D01*
X0007990Y0196629D01*
X0007900Y0196738D01*
X0007814Y0196849D01*
X0007730Y0196962D01*
X0007650Y0197078D01*
X0007573Y0197196D01*
X0007500Y0197316D01*
X0007429Y0197439D01*
X0007363Y0197563D01*
X0007300Y0197689D01*
X0007240Y0197816D01*
X0007184Y0197945D01*
X0007132Y0198076D01*
X0007083Y0198208D01*
X0007038Y0198342D01*
X0006997Y0198477D01*
X0006960Y0198613D01*
X0006926Y0198749D01*
X0006897Y0198887D01*
X0006871Y0199026D01*
X0006850Y0199165D01*
X0006832Y0199305D01*
X0006818Y0199445D01*
X0006808Y0199585D01*
X0006802Y0199726D01*
X0006800Y0199867D01*
X0186800Y0199867D02*
X0186802Y0200008D01*
X0186808Y0200149D01*
X0186818Y0200289D01*
X0186832Y0200429D01*
X0186850Y0200569D01*
X0186871Y0200708D01*
X0186897Y0200847D01*
X0186926Y0200985D01*
X0186960Y0201121D01*
X0186997Y0201257D01*
X0187038Y0201392D01*
X0187083Y0201526D01*
X0187132Y0201658D01*
X0187184Y0201789D01*
X0187240Y0201918D01*
X0187300Y0202045D01*
X0187363Y0202171D01*
X0187429Y0202295D01*
X0187500Y0202418D01*
X0187573Y0202538D01*
X0187650Y0202656D01*
X0187730Y0202772D01*
X0187814Y0202885D01*
X0187900Y0202996D01*
X0187990Y0203105D01*
X0188083Y0203211D01*
X0188178Y0203314D01*
X0188277Y0203415D01*
X0188378Y0203513D01*
X0188482Y0203608D01*
X0188589Y0203700D01*
X0188698Y0203789D01*
X0188810Y0203874D01*
X0188924Y0203957D01*
X0189040Y0204037D01*
X0189159Y0204113D01*
X0189280Y0204185D01*
X0189402Y0204255D01*
X0189527Y0204320D01*
X0189653Y0204383D01*
X0189781Y0204441D01*
X0189911Y0204496D01*
X0190042Y0204548D01*
X0190175Y0204595D01*
X0190309Y0204639D01*
X0190444Y0204680D01*
X0190580Y0204716D01*
X0190717Y0204748D01*
X0190855Y0204777D01*
X0190993Y0204802D01*
X0191133Y0204822D01*
X0191273Y0204839D01*
X0191413Y0204852D01*
X0191554Y0204861D01*
X0191694Y0204866D01*
X0191835Y0204867D01*
X0191976Y0204864D01*
X0192117Y0204857D01*
X0192257Y0204846D01*
X0192397Y0204831D01*
X0192537Y0204812D01*
X0192676Y0204790D01*
X0192814Y0204763D01*
X0192952Y0204733D01*
X0193088Y0204698D01*
X0193224Y0204660D01*
X0193358Y0204618D01*
X0193492Y0204572D01*
X0193624Y0204523D01*
X0193754Y0204469D01*
X0193883Y0204412D01*
X0194010Y0204352D01*
X0194136Y0204288D01*
X0194259Y0204220D01*
X0194381Y0204149D01*
X0194501Y0204075D01*
X0194618Y0203997D01*
X0194733Y0203916D01*
X0194846Y0203832D01*
X0194957Y0203745D01*
X0195065Y0203654D01*
X0195170Y0203561D01*
X0195273Y0203464D01*
X0195373Y0203365D01*
X0195470Y0203263D01*
X0195564Y0203158D01*
X0195655Y0203051D01*
X0195743Y0202941D01*
X0195828Y0202829D01*
X0195910Y0202714D01*
X0195989Y0202597D01*
X0196064Y0202478D01*
X0196136Y0202357D01*
X0196204Y0202234D01*
X0196269Y0202109D01*
X0196331Y0201982D01*
X0196388Y0201853D01*
X0196443Y0201723D01*
X0196493Y0201592D01*
X0196540Y0201459D01*
X0196583Y0201325D01*
X0196622Y0201189D01*
X0196657Y0201053D01*
X0196689Y0200916D01*
X0196716Y0200778D01*
X0196740Y0200639D01*
X0196760Y0200499D01*
X0196776Y0200359D01*
X0196788Y0200219D01*
X0196796Y0200078D01*
X0196800Y0199937D01*
X0196800Y0199797D01*
X0196796Y0199656D01*
X0196788Y0199515D01*
X0196776Y0199375D01*
X0196760Y0199235D01*
X0196740Y0199095D01*
X0196716Y0198956D01*
X0196689Y0198818D01*
X0196657Y0198681D01*
X0196622Y0198545D01*
X0196583Y0198409D01*
X0196540Y0198275D01*
X0196493Y0198142D01*
X0196443Y0198011D01*
X0196388Y0197881D01*
X0196331Y0197752D01*
X0196269Y0197625D01*
X0196204Y0197500D01*
X0196136Y0197377D01*
X0196064Y0197256D01*
X0195989Y0197137D01*
X0195910Y0197020D01*
X0195828Y0196905D01*
X0195743Y0196793D01*
X0195655Y0196683D01*
X0195564Y0196576D01*
X0195470Y0196471D01*
X0195373Y0196369D01*
X0195273Y0196270D01*
X0195170Y0196173D01*
X0195065Y0196080D01*
X0194957Y0195989D01*
X0194846Y0195902D01*
X0194733Y0195818D01*
X0194618Y0195737D01*
X0194501Y0195659D01*
X0194381Y0195585D01*
X0194259Y0195514D01*
X0194136Y0195446D01*
X0194010Y0195382D01*
X0193883Y0195322D01*
X0193754Y0195265D01*
X0193624Y0195211D01*
X0193492Y0195162D01*
X0193358Y0195116D01*
X0193224Y0195074D01*
X0193088Y0195036D01*
X0192952Y0195001D01*
X0192814Y0194971D01*
X0192676Y0194944D01*
X0192537Y0194922D01*
X0192397Y0194903D01*
X0192257Y0194888D01*
X0192117Y0194877D01*
X0191976Y0194870D01*
X0191835Y0194867D01*
X0191694Y0194868D01*
X0191554Y0194873D01*
X0191413Y0194882D01*
X0191273Y0194895D01*
X0191133Y0194912D01*
X0190993Y0194932D01*
X0190855Y0194957D01*
X0190717Y0194986D01*
X0190580Y0195018D01*
X0190444Y0195054D01*
X0190309Y0195095D01*
X0190175Y0195139D01*
X0190042Y0195186D01*
X0189911Y0195238D01*
X0189781Y0195293D01*
X0189653Y0195351D01*
X0189527Y0195414D01*
X0189402Y0195479D01*
X0189280Y0195549D01*
X0189159Y0195621D01*
X0189040Y0195697D01*
X0188924Y0195777D01*
X0188810Y0195860D01*
X0188698Y0195945D01*
X0188589Y0196034D01*
X0188482Y0196126D01*
X0188378Y0196221D01*
X0188277Y0196319D01*
X0188178Y0196420D01*
X0188083Y0196523D01*
X0187990Y0196629D01*
X0187900Y0196738D01*
X0187814Y0196849D01*
X0187730Y0196962D01*
X0187650Y0197078D01*
X0187573Y0197196D01*
X0187500Y0197316D01*
X0187429Y0197439D01*
X0187363Y0197563D01*
X0187300Y0197689D01*
X0187240Y0197816D01*
X0187184Y0197945D01*
X0187132Y0198076D01*
X0187083Y0198208D01*
X0187038Y0198342D01*
X0186997Y0198477D01*
X0186960Y0198613D01*
X0186926Y0198749D01*
X0186897Y0198887D01*
X0186871Y0199026D01*
X0186850Y0199165D01*
X0186832Y0199305D01*
X0186818Y0199445D01*
X0186808Y0199585D01*
X0186802Y0199726D01*
X0186800Y0199867D01*
X0186800Y0019867D02*
X0186802Y0020008D01*
X0186808Y0020149D01*
X0186818Y0020289D01*
X0186832Y0020429D01*
X0186850Y0020569D01*
X0186871Y0020708D01*
X0186897Y0020847D01*
X0186926Y0020985D01*
X0186960Y0021121D01*
X0186997Y0021257D01*
X0187038Y0021392D01*
X0187083Y0021526D01*
X0187132Y0021658D01*
X0187184Y0021789D01*
X0187240Y0021918D01*
X0187300Y0022045D01*
X0187363Y0022171D01*
X0187429Y0022295D01*
X0187500Y0022418D01*
X0187573Y0022538D01*
X0187650Y0022656D01*
X0187730Y0022772D01*
X0187814Y0022885D01*
X0187900Y0022996D01*
X0187990Y0023105D01*
X0188083Y0023211D01*
X0188178Y0023314D01*
X0188277Y0023415D01*
X0188378Y0023513D01*
X0188482Y0023608D01*
X0188589Y0023700D01*
X0188698Y0023789D01*
X0188810Y0023874D01*
X0188924Y0023957D01*
X0189040Y0024037D01*
X0189159Y0024113D01*
X0189280Y0024185D01*
X0189402Y0024255D01*
X0189527Y0024320D01*
X0189653Y0024383D01*
X0189781Y0024441D01*
X0189911Y0024496D01*
X0190042Y0024548D01*
X0190175Y0024595D01*
X0190309Y0024639D01*
X0190444Y0024680D01*
X0190580Y0024716D01*
X0190717Y0024748D01*
X0190855Y0024777D01*
X0190993Y0024802D01*
X0191133Y0024822D01*
X0191273Y0024839D01*
X0191413Y0024852D01*
X0191554Y0024861D01*
X0191694Y0024866D01*
X0191835Y0024867D01*
X0191976Y0024864D01*
X0192117Y0024857D01*
X0192257Y0024846D01*
X0192397Y0024831D01*
X0192537Y0024812D01*
X0192676Y0024790D01*
X0192814Y0024763D01*
X0192952Y0024733D01*
X0193088Y0024698D01*
X0193224Y0024660D01*
X0193358Y0024618D01*
X0193492Y0024572D01*
X0193624Y0024523D01*
X0193754Y0024469D01*
X0193883Y0024412D01*
X0194010Y0024352D01*
X0194136Y0024288D01*
X0194259Y0024220D01*
X0194381Y0024149D01*
X0194501Y0024075D01*
X0194618Y0023997D01*
X0194733Y0023916D01*
X0194846Y0023832D01*
X0194957Y0023745D01*
X0195065Y0023654D01*
X0195170Y0023561D01*
X0195273Y0023464D01*
X0195373Y0023365D01*
X0195470Y0023263D01*
X0195564Y0023158D01*
X0195655Y0023051D01*
X0195743Y0022941D01*
X0195828Y0022829D01*
X0195910Y0022714D01*
X0195989Y0022597D01*
X0196064Y0022478D01*
X0196136Y0022357D01*
X0196204Y0022234D01*
X0196269Y0022109D01*
X0196331Y0021982D01*
X0196388Y0021853D01*
X0196443Y0021723D01*
X0196493Y0021592D01*
X0196540Y0021459D01*
X0196583Y0021325D01*
X0196622Y0021189D01*
X0196657Y0021053D01*
X0196689Y0020916D01*
X0196716Y0020778D01*
X0196740Y0020639D01*
X0196760Y0020499D01*
X0196776Y0020359D01*
X0196788Y0020219D01*
X0196796Y0020078D01*
X0196800Y0019937D01*
X0196800Y0019797D01*
X0196796Y0019656D01*
X0196788Y0019515D01*
X0196776Y0019375D01*
X0196760Y0019235D01*
X0196740Y0019095D01*
X0196716Y0018956D01*
X0196689Y0018818D01*
X0196657Y0018681D01*
X0196622Y0018545D01*
X0196583Y0018409D01*
X0196540Y0018275D01*
X0196493Y0018142D01*
X0196443Y0018011D01*
X0196388Y0017881D01*
X0196331Y0017752D01*
X0196269Y0017625D01*
X0196204Y0017500D01*
X0196136Y0017377D01*
X0196064Y0017256D01*
X0195989Y0017137D01*
X0195910Y0017020D01*
X0195828Y0016905D01*
X0195743Y0016793D01*
X0195655Y0016683D01*
X0195564Y0016576D01*
X0195470Y0016471D01*
X0195373Y0016369D01*
X0195273Y0016270D01*
X0195170Y0016173D01*
X0195065Y0016080D01*
X0194957Y0015989D01*
X0194846Y0015902D01*
X0194733Y0015818D01*
X0194618Y0015737D01*
X0194501Y0015659D01*
X0194381Y0015585D01*
X0194259Y0015514D01*
X0194136Y0015446D01*
X0194010Y0015382D01*
X0193883Y0015322D01*
X0193754Y0015265D01*
X0193624Y0015211D01*
X0193492Y0015162D01*
X0193358Y0015116D01*
X0193224Y0015074D01*
X0193088Y0015036D01*
X0192952Y0015001D01*
X0192814Y0014971D01*
X0192676Y0014944D01*
X0192537Y0014922D01*
X0192397Y0014903D01*
X0192257Y0014888D01*
X0192117Y0014877D01*
X0191976Y0014870D01*
X0191835Y0014867D01*
X0191694Y0014868D01*
X0191554Y0014873D01*
X0191413Y0014882D01*
X0191273Y0014895D01*
X0191133Y0014912D01*
X0190993Y0014932D01*
X0190855Y0014957D01*
X0190717Y0014986D01*
X0190580Y0015018D01*
X0190444Y0015054D01*
X0190309Y0015095D01*
X0190175Y0015139D01*
X0190042Y0015186D01*
X0189911Y0015238D01*
X0189781Y0015293D01*
X0189653Y0015351D01*
X0189527Y0015414D01*
X0189402Y0015479D01*
X0189280Y0015549D01*
X0189159Y0015621D01*
X0189040Y0015697D01*
X0188924Y0015777D01*
X0188810Y0015860D01*
X0188698Y0015945D01*
X0188589Y0016034D01*
X0188482Y0016126D01*
X0188378Y0016221D01*
X0188277Y0016319D01*
X0188178Y0016420D01*
X0188083Y0016523D01*
X0187990Y0016629D01*
X0187900Y0016738D01*
X0187814Y0016849D01*
X0187730Y0016962D01*
X0187650Y0017078D01*
X0187573Y0017196D01*
X0187500Y0017316D01*
X0187429Y0017439D01*
X0187363Y0017563D01*
X0187300Y0017689D01*
X0187240Y0017816D01*
X0187184Y0017945D01*
X0187132Y0018076D01*
X0187083Y0018208D01*
X0187038Y0018342D01*
X0186997Y0018477D01*
X0186960Y0018613D01*
X0186926Y0018749D01*
X0186897Y0018887D01*
X0186871Y0019026D01*
X0186850Y0019165D01*
X0186832Y0019305D01*
X0186818Y0019445D01*
X0186808Y0019585D01*
X0186802Y0019726D01*
X0186800Y0019867D01*
D11*
X0191800Y0019867D03*
X0191800Y0199867D03*
X0011800Y0199867D03*
X0011800Y0019867D03*
D12*
X0084200Y0039867D02*
X0089400Y0039867D01*
X0089400Y0049867D02*
X0084200Y0049867D01*
X0084200Y0059867D02*
X0089400Y0059867D01*
X0089400Y0069867D02*
X0084200Y0069867D01*
X0084200Y0079867D02*
X0089400Y0079867D01*
X0089400Y0089867D02*
X0084200Y0089867D01*
X0084200Y0099867D02*
X0089400Y0099867D01*
X0089400Y0109867D02*
X0084200Y0109867D01*
X0084200Y0119867D02*
X0089400Y0119867D01*
X0089400Y0129867D02*
X0084200Y0129867D01*
X0084200Y0139867D02*
X0089400Y0139867D01*
X0089400Y0149867D02*
X0084200Y0149867D01*
X0084200Y0159867D02*
X0089400Y0159867D01*
X0089400Y0169867D02*
X0084200Y0169867D01*
X0114200Y0169867D02*
X0119400Y0169867D01*
X0119400Y0159867D02*
X0114200Y0159867D01*
X0114200Y0149867D02*
X0119400Y0149867D01*
X0119400Y0139867D02*
X0114200Y0139867D01*
X0114200Y0129867D02*
X0119400Y0129867D01*
X0119400Y0119867D02*
X0114200Y0119867D01*
X0114200Y0109867D02*
X0119400Y0109867D01*
X0119400Y0099867D02*
X0114200Y0099867D01*
X0114200Y0089867D02*
X0119400Y0089867D01*
X0119400Y0079867D02*
X0114200Y0079867D01*
X0114200Y0069867D02*
X0119400Y0069867D01*
X0119400Y0059867D02*
X0114200Y0059867D01*
X0114200Y0049867D02*
X0119400Y0049867D01*
X0119400Y0039867D02*
X0114200Y0039867D01*
D13*
X0106800Y0024867D03*
X0096800Y0024867D03*
X0051800Y0099867D03*
X0066800Y0124867D03*
X0051800Y0139867D03*
X0036800Y0139867D03*
X0036800Y0129867D03*
X0016800Y0154867D03*
X0056800Y0154867D03*
X0066800Y0164867D03*
X0076800Y0184867D03*
X0086800Y0184867D03*
X0101800Y0184867D03*
X0109300Y0189867D03*
X0101800Y0194867D03*
X0116800Y0194867D03*
X0126800Y0194867D03*
X0136800Y0189867D03*
X0176800Y0189867D03*
X0176800Y0179867D03*
X0176800Y0169867D03*
D14*
X0053099Y0044945D03*
X0049950Y0040221D03*
X0046800Y0044945D03*
X0043650Y0040221D03*
X0040501Y0044945D03*
D15*
X0032430Y0024867D03*
X0061170Y0024867D03*
D16*
X0131800Y0089867D03*
X0126800Y0169867D03*
D17*
X0136800Y0169867D03*
X0141800Y0089867D03*
D18*
X0191800Y0089867D03*
X0191800Y0099867D03*
X0191800Y0109867D03*
X0191800Y0119867D03*
X0191800Y0129867D03*
X0191800Y0139867D03*
X0191800Y0149867D03*
X0191800Y0079867D03*
X0171800Y0014867D03*
X0161800Y0014867D03*
X0151800Y0014867D03*
X0141800Y0014867D03*
X0131800Y0014867D03*
X0121800Y0014867D03*
X0006800Y0079867D03*
X0006800Y0089867D03*
X0006800Y0099867D03*
X0006800Y0109867D03*
X0006800Y0119867D03*
X0006800Y0129867D03*
X0006800Y0139867D03*
X0006800Y0149867D03*
D19*
X0056800Y0174867D03*
X0056800Y0194867D03*
X0066800Y0094867D03*
X0066800Y0084867D03*
X0066800Y0074867D03*
X0046800Y0079867D03*
X0026800Y0079867D03*
X0011800Y0057741D03*
X0011800Y0049867D03*
X0011800Y0041993D03*
D20*
X0011800Y0034119D03*
X0011800Y0065615D03*
M02*
